<svg width="213" height="48" viewBox="0 0 213 48" fill="none" xmlns="http://www.w3.org/2000/svg">
<line x1="60.5" y1="8.71777" x2="60.5" y2="35.7178" stroke="white"/>
<rect width="47.4353" height="47.4353" rx="23.7176" fill="white"/>
<rect x="28.1648" y="30.3882" width="2.96471" height="9.63529" transform="rotate(90 28.1648 30.3882)" fill="black"/>
<path fill-rule="evenodd" clip-rule="evenodd" d="M4.44702 14.8235V30.3882H9.94045C14.2746 30.3882 17.7882 26.9039 17.7882 22.6058C17.7882 18.3078 14.2746 14.8235 9.94045 14.8235H4.44702ZM7.81034 18.1588L7.81034 27.0529H9.94045C12.4171 27.0529 14.4249 25.0619 14.4249 22.6058C14.4249 20.1498 12.4171 18.1588 9.94045 18.1588H7.81034Z" fill="black"/>
<path fill-rule="evenodd" clip-rule="evenodd" d="M30.3882 14.8235V30.3882H35.8816C40.2158 30.3882 43.7294 26.9039 43.7294 22.6058C43.7294 18.3078 40.2158 14.8235 35.8816 14.8235H30.3882ZM33.7515 18.1588L33.7515 27.0529H35.8816C38.3583 27.0529 40.366 25.0619 40.366 22.6058C40.366 20.1498 38.3583 18.1588 35.8816 18.1588H33.7515Z" fill="black"/>
</svg>